<svg xmlns="http://www.w3.org/2000/svg" width="283.46" height="283.46" viewBox="0 0 283.46 283.46"><path fill="#fff" d="M166.766 141.027c0-13.873-11.249-25.116-25.123-25.116-13.869 0-25.117 11.243-25.117 25.116s11.249 25.121 25.117 25.121c13.874 0 25.123-11.248 25.123-25.121z"/><path fill="#010101" d="M141.643 169.537c-15.716 0-28.508-12.789-28.508-28.51 0-15.722 12.792-28.505 28.508-28.505 15.727 0 28.514 12.783 28.514 28.505-.001 15.721-12.788 28.51-28.514 28.51zm0-50.235c-11.977 0-21.727 9.746-21.727 21.725 0 11.978 9.75 21.729 21.727 21.729 11.986 0 21.735-9.751 21.735-21.729 0-11.979-9.749-21.725-21.735-21.725z"/><path fill="#fff" d="M124.348 2.771c-2.798 0-5.497 2.25-6 5.002l-7.446 40.776c-.505 2.751-.136 7.156.814 9.784l18.783 51.894c.951 2.625 4.019 4.778 6.814 4.778h8.667c2.798 0 5.863-2.153 6.812-4.778l18.784-51.894c.951-2.628 1.319-7.032.814-9.784l-7.444-40.776c-.504-2.751-3.201-5.002-6-5.002h-34.598z"/><path fill="#010101" d="M145.981 118.395h-8.667c-4.254 0-8.555-3.017-10.006-7.015l-18.778-51.893c-1.166-3.218-1.581-8.18-.965-11.548l7.447-40.775c.804-4.368 4.901-7.784 9.336-7.784h34.601c4.438 0 8.535 3.417 9.336 7.784l7.446 40.775c.616 3.369.197 8.33-.964 11.548l-18.783 51.893c-1.448 3.998-5.748 7.015-10.003 7.015zm-21.633-112.235c-1.162 0-2.457 1.08-2.665 2.222l-7.445 40.777c-.396 2.148-.078 5.968.667 8.021l18.781 51.891c.464 1.284 2.26 2.543 3.627 2.543h8.667c1.365 0 3.16-1.259 3.627-2.543l18.784-51.891c.742-2.054 1.061-5.873.668-8.021l-7.447-40.777c-.209-1.142-1.5-2.222-2.665-2.222h-34.599z"/><path fill="#fff" d="M124.348 279.288c-2.798 0-5.497-2.25-6-5.003l-7.446-40.773c-.505-2.754-.136-7.156.814-9.785l18.783-51.894c.951-2.632 4.019-4.782 6.814-4.782h8.667c2.798 0 5.863 2.15 6.812 4.782l18.784 51.894c.951 2.629 1.319 7.031.814 9.785l-7.444 40.773c-.504 2.753-3.201 5.003-6 5.003h-34.598z"/><path fill="#010101" d="M158.948 282.679h-34.601c-4.435 0-8.532-3.418-9.336-7.783l-7.447-40.775c-.616-3.363-.201-8.331.965-11.548l18.778-51.894c1.451-3.998 5.752-7.019 10.006-7.019h8.667c4.255 0 8.555 3.021 10.002 7.019l18.783 51.894c1.161 3.217 1.576 8.185.964 11.548l-7.446 40.775c-.8 4.365-4.897 7.783-9.335 7.783zm-21.634-112.238c-1.367 0-3.164 1.26-3.627 2.543l-18.781 51.893c-.745 2.055-1.064 5.88-.667 8.022l7.445 40.777c.208 1.143 1.503 2.224 2.665 2.224h34.601c1.165 0 2.456-1.081 2.665-2.224l7.447-40.777c.393-2.143.074-5.968-.668-8.022l-18.784-51.893c-.467-1.283-2.262-2.543-3.627-2.543h-8.669z"/><path fill="#fff" d="M3.391 158.331c0 2.796 2.25 5.495 5.001 5.997l40.775 7.447c2.751.502 7.154.136 9.783-.817l51.894-18.782c2.627-.949 4.781-4.02 4.781-6.815v-8.664c0-2.799-2.154-5.864-4.781-6.817l-51.894-18.78c-2.629-.954-7.032-1.322-9.783-.818l-40.775 7.444c-2.75.506-5.001 3.202-5.001 6v34.605z"/><path fill="#010101" d="M52.033 175.391c-1.289 0-2.458-.094-3.476-.279l-40.775-7.444c-4.368-.802-7.782-4.9-7.782-9.337v-34.606c0-4.438 3.414-8.537 7.78-9.333l40.777-7.444c1.019-.187 2.189-.281 3.482-.281 2.9 0 5.912.465 8.064 1.243l51.893 18.781c4.001 1.45 7.019 5.752 7.019 10.006v8.664c0 4.256-3.018 8.558-7.019 10.002l-51.893 18.782c-2.152.782-5.169 1.246-8.07 1.246zm.007-61.945c-.873 0-1.654.061-2.263.172l-40.775 7.444c-1.144.208-2.22 1.503-2.22 2.663v34.606c0 1.162 1.076 2.455 2.22 2.667l40.775 7.442c2.047.375 6.045.043 8.021-.672l51.89-18.78c1.286-.464 2.548-2.261 2.548-3.628v-8.664c0-1.367-1.262-3.163-2.548-3.628l-51.89-18.781c-1.387-.504-3.702-.841-5.758-.841z"/><path fill="#fff" d="M279.908 158.331c0 2.796-2.252 5.495-5.004 5.997l-40.775 7.447c-2.752.502-7.155.136-9.787-.817l-51.889-18.782c-2.632-.949-4.784-4.02-4.784-6.815v-8.664c0-2.799 2.152-5.864 4.784-6.817l51.889-18.78c2.632-.954 7.035-1.322 9.787-.818l40.775 7.444c2.752.506 5.004 3.202 5.004 6v34.605z"/><path fill="#010101" d="M231.264 175.391c-2.903 0-5.921-.464-8.073-1.246l-51.894-18.782c-3.996-1.444-7.018-5.746-7.018-10.002v-8.664c0-4.253 3.021-8.556 7.018-10.006l51.894-18.781c2.152-.778 5.169-1.243 8.065-1.243 1.29 0 2.464.095 3.481.281l40.778 7.444c4.361.797 7.783 4.896 7.783 9.333v34.606c0 4.437-3.422 8.535-7.783 9.336l-40.778 7.444c-1.017.186-2.186.28-3.473.28zm-.008-61.945c-2.058 0-4.369.337-5.757.841l-51.895 18.781c-1.286.465-2.544 2.261-2.544 3.628v8.664c0 1.367 1.258 3.164 2.544 3.628l51.895 18.78c1.974.715 5.969 1.047 8.021.672l40.777-7.442c1.141-.212 2.221-1.505 2.221-2.667v-34.606c0-1.159-1.08-2.454-2.225-2.663l-40.773-7.444c-.61-.111-1.396-.172-2.264-.172z"/><path fill="#fff" d="M31.651 55.497c-1.976 1.979-2.294 5.479-.704 7.78l23.566 34.099c1.59 2.302 4.963 5.155 7.496 6.34l49.976 23.412c2.531 1.19 6.22.54 8.199-1.436l6.125-6.127c1.979-1.981 2.625-5.667 1.437-8.201l-23.412-49.976c-1.182-2.533-4.038-5.907-6.338-7.496l-34.099-23.567c-2.302-1.588-5.8-1.273-7.777.706l-24.469 24.466z"/><path fill="#010101" d="M114.851 131.114c-1.542 0-3.03-.318-4.308-.917l-49.973-23.409c-3.098-1.448-6.902-4.668-8.846-7.481l-23.566-34.102c-2.521-3.645-2.042-8.962 1.091-12.1l24.473-24.473c1.722-1.721 4.19-2.71 6.771-2.71 1.959 0 3.806.56 5.33 1.614l34.099 23.568c2.814 1.946 6.033 5.747 7.481 8.846l23.416 49.973c1.805 3.854.898 9.028-2.112 12.038l-6.127 6.127c-1.893 1.898-4.783 3.026-7.729 3.026zm-54.358-98.411c-.773 0-1.529.277-1.975.724l-24.47 24.467c-.821.822-.973 2.502-.313 3.458l23.566 34.1c1.24 1.793 4.167 4.272 6.143 5.196l49.978 23.413c.377.18.883.274 1.428.274 1.134 0 2.312-.418 2.936-1.041l6.127-6.128c.965-.965 1.344-3.127.768-4.365l-23.419-49.973c-.923-1.977-3.4-4.908-5.194-6.144l-34.098-23.569c-.383-.267-.907-.412-1.477-.412z"/><path fill="#fff" d="M227.178 251.026c-1.978 1.975-5.481 2.294-7.78.699l-34.095-23.562c-2.304-1.589-5.156-4.963-6.342-7.496l-23.416-49.977c-1.185-2.531-.534-6.221 1.438-8.198l6.132-6.127c1.974-1.978 5.667-2.627 8.2-1.438l49.975 23.412c2.531 1.186 5.904 4.04 7.493 6.338l23.569 34.101c1.587 2.3 1.272 5.8-.707 7.781l-24.467 24.467z"/><path fill="#010101" d="M222.807 256.131c-1.963 0-3.808-.554-5.334-1.612l-34.099-23.562c-2.815-1.95-6.029-5.753-7.479-8.853l-23.419-49.973c-1.805-3.854-.897-9.029 2.112-12.039l6.128-6.127c1.893-1.894 4.784-3.022 7.73-3.022 1.54 0 3.029.315 4.307.915l49.971 23.41c3.093 1.452 6.898 4.665 8.848 7.483l23.566 34.101c2.521 3.646 2.041 8.965-1.095 12.103l-24.472 24.469c-1.72 1.719-4.183 2.707-6.764 2.707zm-54.36-98.408c-1.137 0-2.314.421-2.938 1.038l-6.127 6.128c-.969.969-1.347 3.127-.769 4.367l23.416 49.972c.927 1.978 3.405 4.905 5.199 6.148l34.094 23.562c.906.627 2.68.471 3.452-.308l24.473-24.471c.819-.818.975-2.496.31-3.453l-23.562-34.101c-1.243-1.796-4.175-4.271-6.146-5.194l-49.973-23.411c-.38-.18-.886-.277-1.429-.277z"/><path fill="#fff" d="M56.117 251.024c1.979 1.977 5.478 2.296 7.78.701l34.099-23.562c2.3-1.589 5.15-4.963 6.338-7.496l23.412-49.977c1.188-2.531.542-6.221-1.437-8.198l-6.125-6.127c-1.979-1.978-5.668-2.627-8.199-1.438l-49.976 23.412c-2.533 1.186-5.906 4.04-7.496 6.338l-23.566 34.101c-1.59 2.3-1.271 5.8.704 7.781l24.466 24.465z"/><path fill="#010101" d="M60.491 256.131c-2.583 0-5.051-.988-6.771-2.711l-24.464-24.465c-3.139-3.142-3.618-8.456-1.097-12.103l23.566-34.101c1.943-2.818 5.748-6.031 8.848-7.483l49.973-23.41c1.275-.6 2.764-.915 4.305-.915 2.946 0 5.836 1.129 7.73 3.022l6.127 6.127c3.01 3.01 3.917 8.185 2.107 12.039l-23.411 49.973c-1.456 3.1-4.667 6.902-7.481 8.853l-34.099 23.562c-1.53 1.058-3.376 1.612-5.333 1.612zm54.36-98.408c-.545 0-1.051.098-1.428.273l-49.978 23.416c-1.976.923-4.903 3.398-6.143 5.194l-23.566 34.098c-.66.96-.508 2.638.313 3.461l24.465 24.459c.45.452 1.206.726 1.977.726.57 0 1.092-.144 1.475-.411l34.103-23.562c1.791-1.243 4.271-4.171 5.196-6.148l23.417-49.972c.576-1.24.197-3.398-.768-4.367l-6.127-6.128c-.624-.618-1.803-1.039-2.936-1.039z"/><path fill="#fff" d="M268.594 38.55c1.979 1.976 2.296 5.478.708 7.776l-23.569 34.1c-1.589 2.301-4.961 5.156-7.492 6.341l-49.975 23.41c-2.534 1.191-6.228.542-8.201-1.435l-6.131-6.129c-1.974-1.978-2.622-5.667-1.439-8.201l23.417-49.976c1.187-2.533 4.038-5.906 6.343-7.494l34.092-23.568c2.3-1.588 5.805-1.27 7.782.706l24.465 24.47z"/><path fill="#010101" d="M185.396 114.164c-2.946 0-5.836-1.132-7.729-3.026l-6.13-6.128c-3.007-3.012-3.914-8.186-2.11-12.037l23.413-49.973c1.449-3.1 4.668-6.901 7.484-8.846l34.099-23.568c1.526-1.056 3.37-1.615 5.329-1.615 2.58 0 5.05.989 6.77 2.711l24.471 24.472c3.137 3.135 3.618 8.45 1.096 12.103l-23.565 34.097c-1.949 2.815-5.754 6.036-8.849 7.486l-49.973 23.41c-1.275.596-2.764.914-4.306.914zm54.356-98.411c-.566 0-1.095.146-1.48.412l-34.093 23.568c-1.799 1.237-4.273 4.169-5.2 6.14l-23.411 49.978c-.581 1.236-.202 3.399.766 4.37l6.128 6.122c.922.919 3.197 1.313 4.365.767l49.972-23.413c1.974-.924 4.906-3.403 6.146-5.196l23.564-34.1c.666-.956.51-2.633-.31-3.453l-24.466-24.472c-.448-.447-1.209-.723-1.981-.723z"/></svg>