<?xml version="1.0" encoding="UTF-8" standalone="no"?>
<!-- Created with Inkscape (http://www.inkscape.org/) -->

<svg
   xmlns:dc="http://purl.org/dc/elements/1.1/"
   xmlns:cc="http://creativecommons.org/ns#"
   xmlns:rdf="http://www.w3.org/1999/02/22-rdf-syntax-ns#"
   xmlns:svg="http://www.w3.org/2000/svg"
   xmlns="http://www.w3.org/2000/svg"
   xmlns:sodipodi="http://sodipodi.sourceforge.net/DTD/sodipodi-0.dtd"
   xmlns:inkscape="http://www.inkscape.org/namespaces/inkscape"
   width="109.496"
   height="109.493"
   id="svg3365"
   version="1.1"
   inkscape:version="0.48.5 r10040"
   sodipodi:docname="New document 2">
  <defs
     id="defs3367" />
  <sodipodi:namedview
     id="base"
     pagecolor="#ffffff"
     bordercolor="#666666"
     borderopacity="1.0"
     inkscape:pageopacity="0.0"
     inkscape:pageshadow="2"
     inkscape:zoom="0.35"
     inkscape:cx="184.03371"
     inkscape:cy="-59.539213"
     inkscape:document-units="px"
     inkscape:current-layer="layer1"
     showgrid="false"
     fit-margin-top="0"
     fit-margin-left="0"
     fit-margin-right="0"
     fit-margin-bottom="0"
     inkscape:window-width="749"
     inkscape:window-height="748"
     inkscape:window-x="0"
     inkscape:window-y="18"
     inkscape:window-maximized="0" />
  <metadata
     id="metadata3370">
    <rdf:RDF>
      <cc:Work
         rdf:about="">
        <dc:format>image/svg+xml</dc:format>
        <dc:type
           rdf:resource="http://purl.org/dc/dcmitype/StillImage" />
        <dc:title></dc:title>
      </cc:Work>
    </rdf:RDF>
  </metadata>
  <g
     inkscape:label="Layer 1"
     inkscape:groupmode="layer"
     id="layer1"
     transform="translate(-190.96629,-363.32997)">
    <g
       transform="translate(85.890286,140.17697)"
       id="g131"
       inkscape:export-filename="/tmp/flower.png"
       inkscape:export-xdpi="32.877914"
       inkscape:export-ydpi="32.877914">
      <circle
         d="m 169.532,277.89899 c 0,5.36213 -4.34687,9.709 -9.709,9.709 -5.36213,0 -9.709,-4.34687 -9.709,-9.709 0,-5.36214 4.34687,-9.709 9.709,-9.709 5.36213,0 9.709,4.34686 9.709,9.709 z"
         style="fill:#ffffff"
         sodipodi:ry="9.7089996"
         sodipodi:rx="9.7089996"
         sodipodi:cy="277.89899"
         sodipodi:cx="159.823"
         cx="159.823"
         cy="277.89899"
         r="9.7089996"
         id="circle133" />
      <path
         style="fill:#666666"
         inkscape:connector-curvature="0"
         d="m 159.821,288.918 c -6.074,0 -11.018,-4.942 -11.018,-11.019 0,-6.075 4.943,-11.017 11.018,-11.017 6.078,0 11.021,4.941 11.021,11.017 0,6.077 -4.943,11.019 -11.021,11.019 z m 0,-19.415 c -4.629,0 -8.397,3.767 -8.397,8.396 0,4.629 3.769,8.398 8.397,8.398 4.633,0 8.4,-3.769 8.4,-8.398 0,-4.629 -3.767,-8.396 -8.4,-8.396 z"
         id="path135" />
      <path
         style="fill:#ffffff"
         inkscape:connector-curvature="0"
         d="m 153.138,224.464 c -1.082,0 -2.125,0.87 -2.319,1.935 l -2.878,15.758 c -0.195,1.064 -0.053,2.766 0.314,3.782 l 7.26,20.057 c 0.367,1.016 1.553,1.848 2.634,1.848 h 3.35 c 1.081,0 2.267,-0.832 2.634,-1.848 l 7.26,-20.057 c 0.367,-1.017 0.51,-2.718 0.314,-3.782 l -2.877,-15.758 c -0.195,-1.064 -1.237,-1.935 -2.318,-1.935 h -13.374 z"
         id="path137" />
      <path
         style="fill:#666666"
         inkscape:connector-curvature="0"
         d="m 161.498,269.152 h -3.35 c -1.644,0 -3.306,-1.166 -3.867,-2.711 l -7.258,-20.057 c -0.45,-1.244 -0.61,-3.161 -0.372,-4.463 l 2.877,-15.76 c 0.311,-1.688 1.895,-3.008 3.609,-3.008 h 13.373 c 1.715,0 3.299,1.32 3.607,3.008 l 2.878,15.76 c 0.237,1.302 0.076,3.219 -0.372,4.463 l -7.26,20.057 c -0.558,1.545 -2.219,2.711 -3.865,2.711 z m -8.36,-43.379 c -0.449,0 -0.95,0.418 -1.03,0.859 l -2.878,15.761 c -0.152,0.83 -0.029,2.306 0.259,3.101 l 7.259,20.055 c 0.179,0.497 0.873,0.983 1.401,0.983 h 3.35 c 0.528,0 1.222,-0.486 1.402,-0.983 l 7.26,-20.055 c 0.286,-0.795 0.409,-2.271 0.259,-3.101 l -2.879,-15.761 c -0.08,-0.441 -0.58,-0.859 -1.029,-0.859 h -13.374 z"
         id="path139" />
      <path
         style="fill:#ffffff"
         inkscape:connector-curvature="0"
         d="m 153.138,331.337 c -1.082,0 -2.125,-0.87 -2.319,-1.934 l -2.878,-15.759 c -0.195,-1.064 -0.053,-2.766 0.314,-3.782 l 7.26,-20.057 c 0.367,-1.017 1.553,-1.848 2.634,-1.848 h 3.35 c 1.081,0 2.267,0.831 2.634,1.848 l 7.26,20.057 c 0.367,1.017 0.51,2.718 0.314,3.782 l -2.877,15.759 c -0.195,1.063 -1.237,1.934 -2.318,1.934 h -13.374 z"
         id="path141" />
      <path
         style="fill:#666666"
         inkscape:connector-curvature="0"
         d="m 166.511,332.646 h -13.373 c -1.715,0 -3.299,-1.32 -3.609,-3.008 l -2.877,-15.76 c -0.238,-1.3 -0.078,-3.219 0.372,-4.463 l 7.258,-20.057 c 0.562,-1.545 2.224,-2.712 3.867,-2.712 h 3.35 c 1.646,0 3.307,1.167 3.866,2.712 l 7.26,20.057 c 0.448,1.244 0.608,3.163 0.372,4.463 l -2.878,15.76 c -0.309,1.688 -1.893,3.008 -3.608,3.008 z m -8.363,-43.378 c -0.528,0 -1.223,0.487 -1.401,0.983 l -7.259,20.056 c -0.288,0.795 -0.411,2.272 -0.259,3.101 l 2.878,15.761 c 0.08,0.441 0.581,0.859 1.03,0.859 h 13.373 c 0.449,0 0.949,-0.418 1.029,-0.859 l 2.879,-15.761 c 0.15,-0.828 0.027,-2.306 -0.259,-3.101 l -7.26,-20.056 c -0.181,-0.496 -0.874,-0.983 -1.402,-0.983 h -3.349 z"
         id="path143" />
      <path
         style="fill:#ffffff"
         inkscape:connector-curvature="0"
         d="m 106.388,284.587 c 0,1.081 0.87,2.124 1.934,2.318 l 15.76,2.878 c 1.062,0.194 2.764,0.053 3.78,-0.315 l 20.057,-7.26 c 1.016,-0.366 1.849,-1.553 1.849,-2.634 v -3.349 c 0,-1.081 -0.833,-2.267 -1.849,-2.635 l -20.057,-7.259 c -1.017,-0.368 -2.718,-0.511 -3.78,-0.315 l -15.76,2.877 c -1.063,0.195 -1.934,1.237 -1.934,2.318 v 13.376 z"
         id="path145" />
      <path
         style="fill:#666666"
         inkscape:connector-curvature="0"
         d="m 125.188,291.181 0,0 c -0.498,0 -0.95,-0.036 -1.344,-0.107 l -15.76,-2.878 c -1.688,-0.31 -3.008,-1.894 -3.008,-3.608 v -13.375 c 0,-1.715 1.32,-3.299 3.008,-3.606 l 15.76,-2.878 c 0.394,-0.071 0.846,-0.108 1.346,-0.108 1.121,0 2.285,0.181 3.117,0.48 l 20.056,7.259 c 1.547,0.561 2.714,2.224 2.714,3.867 v 3.349 c 0,1.645 -1.167,3.308 -2.714,3.866 l -20.056,7.259 c -0.831,0.3 -1.997,0.48 -3.119,0.48 z m 0.002,-23.941 c -0.338,0 -0.639,0.022 -0.875,0.066 l -15.759,2.876 c -0.442,0.082 -0.858,0.582 -0.858,1.029 v 13.375 c 0,0.449 0.416,0.949 0.858,1.031 l 15.759,2.876 c 0.792,0.146 2.338,0.018 3.101,-0.259 l 20.056,-7.259 c 0.496,-0.18 0.984,-0.874 0.984,-1.402 v -3.349 c 0,-0.528 -0.488,-1.222 -0.984,-1.402 l -20.056,-7.258 c -0.536,-0.195 -1.431,-0.324 -2.226,-0.324 z"
         id="path147" />
      <path
         style="fill:#ffffff"
         inkscape:connector-curvature="0"
         d="m 213.261,284.587 c 0,1.081 -0.871,2.124 -1.936,2.318 l -15.758,2.878 c -1.064,0.194 -2.766,0.053 -3.783,-0.315 l -20.055,-7.26 c -1.018,-0.366 -1.85,-1.553 -1.85,-2.634 v -3.349 c 0,-1.081 0.832,-2.267 1.85,-2.635 l 20.055,-7.259 c 1.018,-0.368 2.719,-0.511 3.783,-0.315 l 15.758,2.877 c 1.064,0.195 1.936,1.237 1.936,2.318 v 13.376 z"
         id="path149" />
      <path
         style="fill:#666666"
         inkscape:connector-curvature="0"
         d="m 194.46,291.181 c -1.123,0 -2.289,-0.18 -3.121,-0.481 l -20.057,-7.259 c -1.544,-0.559 -2.712,-2.222 -2.712,-3.866 v -3.349 c 0,-1.644 1.168,-3.307 2.712,-3.867 l 20.057,-7.259 c 0.832,-0.3 1.998,-0.48 3.117,-0.48 0.498,0 0.952,0.037 1.346,0.108 l 15.761,2.878 c 1.686,0.308 3.009,1.892 3.009,3.606 v 13.375 c 0,1.715 -1.323,3.299 -3.009,3.608 l -15.761,2.878 c -0.394,0.072 -0.845,0.108 -1.342,0.108 z m -0.004,-23.941 c -0.795,0 -1.688,0.129 -2.225,0.325 l -20.057,7.258 c -0.497,0.181 -0.984,0.874 -0.984,1.402 v 3.349 c 0,0.528 0.487,1.223 0.984,1.402 l 20.057,7.259 c 0.763,0.276 2.307,0.404 3.1,0.259 l 15.761,-2.876 c 0.44,-0.082 0.858,-0.582 0.858,-1.031 v -13.375 c 0,-0.447 -0.418,-0.947 -0.86,-1.029 l -15.759,-2.876 c -0.235,-0.044 -0.539,-0.067 -0.875,-0.067 z"
         id="path151" />
      <path
         style="fill:#ffffff"
         inkscape:connector-curvature="0"
         d="m 117.311,244.843 c -0.764,0.766 -0.887,2.118 -0.272,3.007 l 9.108,13.179 c 0.614,0.89 1.919,1.993 2.897,2.451 l 19.314,9.048 c 0.979,0.46 2.404,0.209 3.17,-0.555 l 2.367,-2.368 c 0.765,-0.766 1.015,-2.19 0.555,-3.17 l -9.049,-19.315 c -0.456,-0.979 -1.561,-2.283 -2.449,-2.896 l -13.179,-9.108 c -0.89,-0.614 -2.241,-0.492 -3.006,0.272 l -9.456,9.455 z"
         id="path153" />
      <path
         style="fill:#666666"
         inkscape:connector-curvature="0"
         d="m 149.466,274.068 0,0 c -0.595,0 -1.17,-0.123 -1.664,-0.354 l -19.314,-9.048 c -1.197,-0.56 -2.668,-1.804 -3.418,-2.891 l -9.109,-13.181 c -0.974,-1.409 -0.789,-3.465 0.422,-4.677 l 9.459,-9.459 c 0.666,-0.665 1.619,-1.048 2.617,-1.048 0.757,0 1.471,0.218 2.06,0.624 l 13.179,9.109 c 1.088,0.752 2.332,2.222 2.893,3.419 l 9.05,19.314 c 0.697,1.489 0.347,3.489 -0.816,4.652 l -2.368,2.368 c -0.735,0.737 -1.853,1.172 -2.991,1.172 z m -21.008,-38.035 c -0.299,0 -0.592,0.106 -0.764,0.279 l -9.457,9.456 c -0.317,0.318 -0.376,0.967 -0.121,1.337 l 9.107,13.18 c 0.48,0.693 1.611,1.65 2.375,2.008 l 19.316,9.049 c 0.146,0.069 0.342,0.105 0.551,0.105 l 0,0 c 0.439,0 0.895,-0.161 1.135,-0.401 l 2.369,-2.368 c 0.373,-0.373 0.52,-1.21 0.297,-1.688 l -9.052,-19.314 c -0.356,-0.764 -1.314,-1.896 -2.008,-2.374 l -13.179,-9.109 c -0.147,-0.104 -0.349,-0.16 -0.569,-0.16 z"
         id="path155" />
      <path
         style="fill:#ffffff"
         inkscape:connector-curvature="0"
         d="m 192.88,320.413 c -0.764,0.764 -2.118,0.887 -3.007,0.271 l -13.177,-9.106 c -0.891,-0.614 -1.993,-1.918 -2.451,-2.897 l -9.051,-19.315 c -0.457,-0.979 -0.207,-2.404 0.557,-3.169 l 2.369,-2.367 c 0.763,-0.765 2.19,-1.016 3.17,-0.557 l 19.314,9.049 c 0.979,0.458 2.281,1.562 2.896,2.449 l 9.11,13.18 c 0.613,0.89 0.491,2.242 -0.273,3.008 l -9.457,9.454 z"
         id="path157" />
      <path
         style="fill:#666666"
         inkscape:connector-curvature="0"
         d="m 191.19,322.387 c -0.759,0 -1.471,-0.215 -2.062,-0.624 l -13.179,-9.106 c -1.088,-0.753 -2.33,-2.223 -2.891,-3.421 l -9.051,-19.314 c -0.697,-1.489 -0.347,-3.489 0.816,-4.652 l 2.368,-2.368 c 0.731,-0.732 1.849,-1.168 2.987,-1.168 0.596,0 1.172,0.121 1.665,0.354 l 19.313,9.048 c 1.195,0.561 2.666,1.803 3.42,2.892 l 9.107,13.18 c 0.975,1.41 0.789,3.466 -0.423,4.678 l -9.458,9.457 c -0.661,0.661 -1.614,1.044 -2.612,1.044 z m -21.009,-38.034 c -0.439,0 -0.895,0.162 -1.135,0.401 l -2.367,2.368 c -0.375,0.374 -0.521,1.208 -0.298,1.688 l 9.05,19.314 c 0.358,0.764 1.316,1.896 2.01,2.375 l 13.177,9.107 c 0.351,0.242 1.036,0.183 1.335,-0.119 l 9.458,-9.458 c 0.317,-0.315 0.377,-0.964 0.12,-1.334 l -9.107,-13.18 c -0.479,-0.694 -1.613,-1.65 -2.375,-2.008 l -19.314,-9.049 c -0.148,-0.068 -0.343,-0.105 -0.554,-0.105 z"
         id="path159" />
      <path
         style="fill:#ffffff"
         inkscape:connector-curvature="0"
         d="m 126.767,320.412 c 0.766,0.765 2.117,0.888 3.007,0.271 l 13.179,-9.106 c 0.889,-0.614 1.99,-1.918 2.449,-2.897 l 9.049,-19.315 c 0.46,-0.979 0.21,-2.404 -0.555,-3.169 l -2.367,-2.367 c -0.766,-0.765 -2.191,-1.016 -3.17,-0.557 l -19.314,9.049 c -0.979,0.458 -2.283,1.562 -2.897,2.449 l -9.108,13.18 c -0.614,0.89 -0.491,2.242 0.272,3.008 l 9.455,9.454 z"
         id="path161" />
      <path
         style="fill:#666666"
         inkscape:connector-curvature="0"
         d="m 128.457,322.387 0,0 c -0.999,0 -1.952,-0.383 -2.617,-1.048 l -9.456,-9.456 c -1.213,-1.214 -1.397,-3.268 -0.424,-4.678 l 9.109,-13.18 c 0.75,-1.089 2.221,-2.331 3.419,-2.892 l 19.313,-9.048 c 0.494,-0.232 1.069,-0.354 1.664,-0.354 1.139,0 2.256,0.436 2.988,1.168 l 2.368,2.368 c 1.163,1.163 1.514,3.163 0.813,4.652 l -9.047,19.314 c -0.562,1.198 -1.805,2.668 -2.893,3.421 l -13.179,9.106 c -0.588,0.412 -1.301,0.627 -2.058,0.627 z m 21.009,-38.034 c -0.209,0 -0.405,0.037 -0.551,0.105 l -19.316,9.05 c -0.764,0.357 -1.895,1.313 -2.375,2.008 l -9.107,13.179 c -0.255,0.371 -0.196,1.02 0.121,1.338 l 9.455,9.453 c 0.174,0.175 0.467,0.28 0.765,0.28 l 0,0 c 0.22,0 0.422,-0.056 0.569,-0.159 l 13.181,-9.107 c 0.692,-0.479 1.651,-1.611 2.009,-2.375 l 9.051,-19.314 c 0.223,-0.479 0.076,-1.313 -0.297,-1.688 l -2.369,-2.368 c -0.242,-0.24 -0.697,-0.402 -1.136,-0.402 z"
         id="path163" />
      <path
         style="fill:#ffffff"
         inkscape:connector-curvature="0"
         d="m 208.887,238.293 c 0.766,0.764 0.888,2.116 0.274,3.006 l -9.109,13.18 c -0.614,0.889 -1.918,1.992 -2.896,2.449 l -19.314,9.049 c -0.979,0.46 -2.406,0.209 -3.17,-0.555 l -2.369,-2.369 c -0.763,-0.765 -1.014,-2.189 -0.557,-3.17 l 9.051,-19.314 c 0.459,-0.979 1.561,-2.283 2.451,-2.896 l 13.177,-9.109 c 0.889,-0.613 2.243,-0.491 3.007,0.272 l 9.455,9.457 z"
         id="path165" />
      <path
         style="fill:#666666"
         inkscape:connector-curvature="0"
         d="m 176.732,267.518 c -1.139,0 -2.256,-0.438 -2.987,-1.17 l -2.369,-2.369 c -1.162,-1.163 -1.514,-3.163 -0.816,-4.651 l 9.049,-19.314 c 0.561,-1.198 1.805,-2.668 2.893,-3.419 l 13.18,-9.108 c 0.59,-0.408 1.303,-0.625 2.06,-0.625 0.997,0 1.951,0.383 2.616,1.048 l 9.458,9.458 c 1.212,1.213 1.397,3.267 0.424,4.678 l -9.108,13.179 c -0.754,1.088 -2.225,2.332 -3.42,2.893 l -19.314,9.049 c -0.495,0.228 -1.071,0.351 -1.666,0.351 z m 21.008,-38.036 c -0.22,0 -0.423,0.056 -0.572,0.159 l -13.177,9.108 c -0.695,0.478 -1.651,1.611 -2.01,2.373 l -9.048,19.316 c -0.226,0.478 -0.079,1.314 0.296,1.688 l 2.368,2.366 c 0.356,0.355 1.235,0.507 1.687,0.296 l 19.314,-9.049 c 0.763,-0.356 1.896,-1.314 2.375,-2.008 l 9.107,-13.179 c 0.258,-0.37 0.197,-1.018 -0.119,-1.335 l -9.457,-9.458 c -0.171,-0.17 -0.466,-0.277 -0.764,-0.277 z"
         id="path167" />
    </g>
  </g>
</svg>
