<svg xmlns="http://www.w3.org/2000/svg" width="70.545" height="70.542"><defs id="defs2589"><radialGradient id="SVGID_2_" cx="242" cy="288.767" r="18.309" gradientUnits="userSpaceOnUse"><stop offset="0" id="stop179" stop-color="#fff"/><stop offset=".389" id="stop181" stop-color="#FFFFFD"/><stop offset=".529" id="stop183" stop-color="#FFFEF6"/><stop offset=".628" id="stop185" stop-color="#FEFDEB"/><stop offset=".709" id="stop187" stop-color="#FEFCDA"/><stop offset=".778" id="stop189" stop-color="#FDFAC4"/><stop offset=".839" id="stop191" stop-color="#FCF7A8"/><stop offset=".895" id="stop193" stop-color="#FCF488"/><stop offset=".946" id="stop195" stop-color="#FAF162"/><stop offset=".991" id="stop197" stop-color="#F9ED39"/><stop offset="1" id="stop199" stop-color="#F9EC30"/></radialGradient><radialGradient id="SVGID_1_" cx="242" cy="286.59" r="28.224" gradientUnits="userSpaceOnUse"><stop offset="0" id="stop150" stop-color="#FAAF3F"/><stop offset=".185" id="stop152" stop-color="#FAB83D"/><stop offset=".487" id="stop154" stop-color="#F9D037"/><stop offset=".725" id="stop156" stop-color="#F9E831"/><stop offset=".77" id="stop158" stop-color="#F9E834"/><stop offset=".808" id="stop160" stop-color="#F9EA3F"/><stop offset=".845" id="stop162" stop-color="#FAEC51"/><stop offset=".881" id="stop164" stop-color="#FBEE6A"/><stop offset=".915" id="stop166" stop-color="#FCF28B"/><stop offset=".949" id="stop168" stop-color="#FDF7B3"/><stop offset=".982" id="stop170" stop-color="#FEFCE2"/><stop offset="1" id="stop172" stop-color="#fff"/></radialGradient></defs><g id="g29" transform="translate(-341.87 -591.377) translate(135.144 325.946)"><g id="g31"><g id="g33"><g id="g35"><ellipse cx="242" cy="277.369" rx="4.01" ry="10.938" id="ellipse37" fill="#fff"/><path d="m238.224 285.447c-.778-2.131-1.231-4.956-1.234-8.077 .002-3.123 .456-5.948 1.234-8.079 .793-2.067 1.842-3.759 3.776-3.86 1.934 .101 2.981 1.792 3.773 3.86 .778 2.131 1.234 4.956 1.236 8.079-.002 3.121-.458 5.946-1.236 8.077-.79 2.065-1.841 3.755-3.773 3.858-1.934-.103-2.983-1.793-3.776-3.858zm5.673-.69c.671-1.825 1.115-4.469 1.113-7.387 .002-2.92-.441-5.564-1.113-7.392-.661-1.893-1.616-2.65-1.897-2.548-.281-.103-1.238 .655-1.897 2.548-.673 1.828-1.115 4.472-1.113 7.392-.002 2.917 .439 5.562 1.113 7.387 .659 1.891 1.616 2.649 1.897 2.548 .281 .101 1.236-.657 1.897-2.548z" id="path39" fill="#ccc"/></g><g id="g41"><ellipse cx="242" cy="324.036" rx="4.01" ry="10.938" id="ellipse43" fill="#fff"/><path d="m238.226 332.114c-.778-2.133-1.235-4.959-1.237-8.079 .002-3.122 .458-5.947 1.237-8.078 .791-2.066 1.84-3.758 3.774-3.858 1.933 .101 2.982 1.792 3.772 3.858 .781 2.131 1.235 4.956 1.237 8.078-.002 3.12-.456 5.946-1.237 8.079-.791 2.067-1.839 3.758-3.772 3.859-1.935-.101-2.983-1.791-3.774-3.859zm5.67-.689c.673-1.827 1.115-4.471 1.113-7.39 .002-2.92-.44-5.562-1.113-7.391-.659-1.891-1.614-2.648-1.896-2.548-.283-.101-1.237 .657-1.897 2.548-.673 1.828-1.115 4.471-1.113 7.391-.002 2.919 .44 5.562 1.113 7.39 .661 1.892 1.617 2.651 1.897 2.55 .281 .101 1.237-.659 1.896-2.55z" id="path45" fill="#ccc"/></g></g><g id="g47"><g id="g49"><path d="m265.333 304.713c6.044 0 10.938-1.797 10.938-4.012 0-2.214-4.895-4.009-10.938-4.009-6.04 0-10.938 1.795-10.938 4.009 .001 2.215 4.898 4.012 10.938 4.012z" id="path51" fill="#fff"/><path d="m257.254 304.476c-2.067-.793-3.757-1.842-3.859-3.775 .103-1.934 1.794-2.981 3.859-3.773 2.131-.78 4.958-1.234 8.079-1.236 3.123 .002 5.95 .457 8.081 1.236 2.065 .792 3.756 1.841 3.857 3.773-.101 1.934-1.792 2.982-3.857 3.775-2.131 .779-4.958 1.233-8.081 1.236v-2c2.921 .002 5.565-.44 7.392-1.113 1.891-.66 2.647-1.617 2.547-1.898 .101-.28-.656-1.236-2.547-1.895-1.827-.673-4.47-1.117-7.392-1.113-2.919-.004-5.562 .44-7.39 1.113-1.893 .658-2.649 1.615-2.549 1.895-.101 .281 .658 1.238 2.549 1.898 1.827 .673 4.471 1.115 7.39 1.113v2c-3.121-.003-5.948-.457-8.079-1.236z" id="path53" fill="#ccc"/></g><g id="g55"><path d="m218.664 304.713c6.041 0 10.938-1.797 10.938-4.012 0-2.212-4.897-4.009-10.938-4.009-6.039 0-10.937 1.797-10.937 4.009 .001 2.215 4.898 4.012 10.937 4.012z" id="path57" fill="#fff"/><path d="m210.585 304.476c-2.065-.793-3.756-1.842-3.859-3.775 .103-1.932 1.794-2.981 3.859-3.773 2.131-.78 4.958-1.234 8.079-1.236 3.121 .002 5.948 .457 8.079 1.236 2.065 .792 3.756 1.841 3.859 3.773-.103 1.934-1.792 2.982-3.859 3.775-2.131 .779-4.958 1.233-8.079 1.236v-2c2.919 .002 5.563-.44 7.39-1.113 1.893-.66 2.65-1.617 2.549-1.898 .101-.277-.656-1.234-2.549-1.895-1.827-.673-4.47-1.117-7.39-1.115-2.919-.002-5.562 .442-7.389 1.115-1.893 .66-2.65 1.617-2.549 1.895-.101 .281 .659 1.238 2.549 1.898 1.827 .673 4.47 1.115 7.389 1.113v2c-3.121-.003-5.947-.457-8.079-1.236z" id="path59" fill="#ccc"/></g></g><g id="g61"><g id="g63"><ellipse transform="matrix(.707 -.707 .707 .707 -134.92 242.756)" cx="225.501" cy="284.202" rx="4.011" ry="10.937" id="ellipse65" fill="#fff"/><path d="m231.787 293.44c-2.74-.06-6.347-2.268-9.829-5.696-3.43-3.484-5.637-7.089-5.696-9.829-.006-.776 .216-1.574 .795-2.151 .582-.589 1.38-.807 2.155-.803 2.74 .06 6.348 2.268 9.832 5.696l-.707 .707 .707-.707c3.426 3.484 5.636 7.091 5.696 9.831 .006 .776-.213 1.574-.799 2.157-.576 .572-1.362 .795-2.132 .795h-.022zm-12.576-16.48c-.441 .004-.632 .108-.737 .215-.104 .105-.209 .298-.213 .74-.06 1.6 1.867 5.224 5.113 8.416 3.188 3.244 6.812 5.17 8.414 5.111 .439-.004 .637-.109 .74-.213 .104-.103 .209-.296 .213-.74 .06-1.6-1.869-5.227-5.11-8.417l-.001 .001c-3.142-3.194-6.708-5.114-8.344-5.114l-.075 .001z" id="path67" fill="#ccc"/></g><g id="g69"><path d="m261.337 314.367c-4.273-4.272-9.007-6.464-10.572-4.9-1.564 1.564 .627 6.299 4.898 10.57 4.272 4.273 9.003 6.463 10.57 4.9 1.568-1.569-.628-6.3-4.896-10.57z" id="path71" fill="#fff"/><path d="m264.786 326.438c-2.739-.06-6.346-2.265-9.83-5.696-3.43-3.485-5.637-7.095-5.696-9.831-.006-.778 .216-1.574 .792-2.147 .584-.59 1.384-.809 2.158-.805 2.739 .061 6.348 2.269 9.835 5.699l-.708 .709-.707 .708c-3.191-3.247-6.821-5.177-8.421-5.117-.443 .006-.633 .109-.739 .217-.103 .103-.208 .295-.212 .736-.06 1.6 1.867 5.226 5.113 8.418 3.188 3.244 6.814 5.169 8.415 5.109 .439-.005 .637-.109 .738-.207 .105-.106 .21-.303 .214-.744 .06-1.603-1.869-5.229-5.108-8.412l.707-.708 .708-.709c3.424 3.479 5.633 7.086 5.694 9.829 .004 .775-.216 1.571-.804 2.163-.576 .566-1.357 .788-2.128 .788h-.021z" id="path73" fill="#ccc"/></g></g><g id="g75"><g id="g77"><ellipse transform="matrix(.707 .707 -.707 .707 276.641 -99.548)" cx="258.5" cy="284.202" rx="4.012" ry="10.937" id="ellipse79" fill="#fff"/><path d="m250.057 292.644c-.583-.583-.803-1.38-.797-2.155 .06-2.74 2.266-6.347 5.696-9.831 3.481-3.428 7.089-5.637 9.829-5.696 .776-.006 1.573 .218 2.155 .799 .583 .581 .803 1.378 .799 2.155-.06 2.74-2.27 6.345-5.694 9.829l-.709-.707 .707 .707c-3.486 3.428-7.093 5.636-9.833 5.696h-.031c-.765 0-1.549-.224-2.122-.797zm6.312-10.571c-3.244 3.188-5.17 6.816-5.111 8.416 .004 .444 .109 .635 .214 .74 .104 .104 .296 .209 .737 .213 1.603 .06 5.228-1.869 8.42-5.111 3.242-3.19 5.17-6.815 5.109-8.416-.002-.442-.109-.637-.212-.74-.106-.107-.302-.211-.741-.215l-.074-.001c-1.637 0-5.2 1.917-8.342 5.114z" id="path81" fill="#ccc"/></g><g id="g83"><ellipse transform="matrix(.707 .707 -.707 .707 290.311 -66.553)" cx="225.501" cy="317.202" rx="4.01" ry="10.938" id="ellipse85" fill="#fff"/><path d="m217.058 325.642c-.58-.582-.802-1.378-.796-2.153 .06-2.741 2.267-6.348 5.696-9.829 3.483-3.43 7.091-5.639 9.832-5.699 .775-.004 1.572 .217 2.153 .799 .582 .581 .8 1.378 .796 2.155-.06 2.74-2.269 6.346-5.694 9.829l-.708-.707 .706 .707c-3.485 3.426-7.091 5.637-9.83 5.696h-.021c-.769-.001-1.556-.22-2.134-.798zm6.315-10.569c-3.245 3.187-5.173 6.814-5.113 8.415 .006 .441 .107 .634 .214 .742 .103 .102 .295 .205 .738 .209 1.599 .062 5.226-1.869 8.417-5.111l.001 .001c3.241-3.189 5.169-6.815 5.109-8.415-.004-.443-.111-.64-.212-.74-.105-.105-.299-.209-.738-.215l-.074-.002c-1.637 .001-5.202 1.92-8.342 5.116z" id="path87" fill="#ccc"/></g></g><g id="g89"><g id="g91"><ellipse transform="matrix(.924 -.383 .383 .924 -89.041 110.361)" cx="233.07" cy="279.146" rx="4.012" ry="10.939" id="ellipse93" fill="#fff"/><path d="m236.646 290.364c-1.628-.051-3.002-1.185-4.403-2.799-1.382-1.643-2.721-3.889-3.805-6.503-1.286-3.115-1.955-6.111-1.959-8.468 .021-1.963 .407-3.727 2.017-4.476 .322-.138 .665-.197 .996-.197 1.626 .053 3 1.187 4.4 2.803 1.384 1.641 2.723 3.889 3.807 6.503l-.922 .384 .924-.382c1.284 3.111 1.953 6.106 1.957 8.466-.022 1.961-.407 3.725-2.027 4.479-.309 .127-.64 .191-.97 .191l-.015-.001zm-7.154-20.443l-.226 .041c-.269 .029-.809 .896-.787 2.632-.006 1.979 .598 4.792 1.807 7.702 1.012 2.448 2.273 4.542 3.486 5.979 1.197 1.46 2.417 2.142 2.873 2.088l.226-.041c.269-.025 .809-.893 .787-2.628 .004-1.979-.599-4.793-1.804-7.7h-.001c-1.014-2.448-2.275-4.544-3.488-5.981-1.155-1.413-2.333-2.095-2.822-2.095l-.051 .003z" id="path95" fill="#ccc"/></g><g id="g97"><ellipse transform="matrix(.924 -.383 .383 .924 -104.212 120.538)" cx="250.929" cy="322.259" rx="4.011" ry="10.937" id="ellipse99" fill="#fff"/><path d="m250.105 330.679c-1.383-1.642-2.721-3.889-3.807-6.504-1.286-3.115-1.955-6.11-1.959-8.468 .023-1.963 .407-3.726 2.006-4.471 .331-.145 .677-.203 1.007-.2 1.627 .051 3.001 1.185 4.401 2.801 1.381 1.643 2.721 3.891 3.805 6.504l-.925 .384-.923 .382c-1.011-2.447-2.272-4.543-3.486-5.981-1.195-1.462-2.415-2.143-2.872-2.091l-.227 .043c-.268 .027-.809 .892-.786 2.63-.004 1.978 .599 4.793 1.806 7.703 1.013 2.446 2.274 4.542 3.488 5.98 1.195 1.461 2.415 2.143 2.872 2.091l.227-.041c.268-.027 .807-.892 .786-2.628 .004-1.979-.601-4.797-1.808-7.706l.923-.382 .925-.384c1.284 3.115 1.957 6.112 1.961 8.472-.023 1.961-.407 3.724-2.033 4.479-.31 .126-.646 .189-.98 .189-1.629-.053-3.002-1.186-4.401-2.802z" id="path101" fill="#ccc"/></g></g><g id="g103"><g id="g105"><ellipse transform="matrix(.383 .924 -.924 .383 432.16 -63.428)" cx="263.558" cy="291.772" rx="4.011" ry="10.937" id="ellipse107" fill="#fff"/><path d="m252.532 296.345c-.138-.323-.198-.666-.198-.997 .054-1.628 1.186-3.001 2.802-4.401 1.642-1.381 3.889-2.719 6.503-3.804 3.116-1.287 6.11-1.957 8.47-1.963 1.96 .022 3.724 .409 4.477 2.024 .131 .316 .193 .656 .193 .991-.053 1.628-1.186 3.001-2.801 4.4-1.64 1.383-3.889 2.721-6.501 3.805l-.382-.923 .382 .925c-3.116 1.285-6.113 1.955-8.47 1.959-1.964-.021-3.727-.407-4.475-2.016zm9.871-7.354c-2.446 1.013-4.542 2.273-5.979 3.486-1.461 1.196-2.142 2.415-2.09 2.872l.043 .228c.026 .267 .89 .808 2.629 .785 1.977 .004 4.793-.6 7.706-1.809v.001c2.444-1.013 4.54-2.273 5.977-3.487 1.461-1.196 2.142-2.415 2.09-2.871l-.042-.226c-.028-.27-.894-.81-2.628-.787h-.021c-1.977-.001-4.784 .601-7.685 1.808z" id="path109" fill="#ccc"/></g><g id="g111"><ellipse transform="matrix(.383 .924 -.924 .383 422.168 -12.507)" cx="220.442" cy="309.631" rx="4.01" ry="10.937" id="ellipse113" fill="#fff"/><path d="m209.413 314.202c-.134-.321-.196-.663-.194-.993 .052-1.629 1.185-3.003 2.8-4.401 1.642-1.382 3.891-2.722 6.507-3.805 3.112-1.289 6.107-1.959 8.468-1.963 1.961 .022 3.726 .41 4.476 2.022 .132 .317 .193 .657 .193 .993-.051 1.627-1.184 3.001-2.801 4.399-1.642 1.383-3.889 2.72-6.503 3.805-3.117 1.283-6.112 1.955-8.472 1.961-1.959-.022-3.722-.405-4.474-2.018zm9.877-7.351c-2.447 1.012-4.544 2.272-5.982 3.485-1.462 1.196-2.142 2.416-2.091 2.873l.043 .227c.027 .267 .89 .806 2.626 .783 1.979 .006 4.794-.6 7.706-1.808v-.001c2.447-1.012 4.544-2.272 5.979-3.483 1.462-1.196 2.143-2.414 2.091-2.871l-.041-.227c-.027-.271-.892-.812-2.628-.789h-.021c-1.977 0-4.784 .604-7.682 1.811z" id="path115" fill="#ccc"/></g></g><g id="g117"><g id="g119"><ellipse transform="matrix(.383 -.924 .924 .383 -133.465 383.837)" cx="220.442" cy="291.772" rx="4.011" ry="10.939" id="ellipse121" fill="#fff"/><path d="m218.524 296.401c-2.615-1.085-4.863-2.423-6.505-3.807-1.616-1.4-2.748-2.772-2.8-4.4-.002-.333 .06-.672 .191-.989 .75-1.62 2.516-2.002 4.479-2.024 2.36 .004 5.354 .674 8.47 1.96l-.382 .925-.384 .923c-2.908-1.208-5.724-1.813-7.704-1.809-1.739-.022-2.602 .518-2.631 .79l-.041 .224c-.051 .456 .629 1.675 2.092 2.871 1.437 1.215 3.533 2.475 5.981 3.488 2.908 1.208 5.724 1.812 7.704 1.807 1.734 .022 2.6-.518 2.628-.785l.039-.229c.054-.456-.626-1.675-2.09-2.871-1.437-1.213-3.533-2.473-5.979-3.486l.384-.923 .382-.925c2.613 1.085 4.859 2.423 6.501 3.805 1.618 1.4 2.75 2.773 2.801 4.4 .002 .331-.06 .672-.193 .993-.752 1.613-2.514 2-4.475 2.022-2.357-.003-5.352-.673-8.468-1.96z" id="path123" fill="#ccc"/></g><g id="g125"><path d="m265.094 305.927c-5.581-2.312-10.795-2.526-11.641-.479-.848 2.043 2.989 5.577 8.568 7.889 5.584 2.313 10.793 2.529 11.641 .482 .848-2.047-2.988-5.579-8.568-7.892z" id="path127" fill="#fff"/><path d="m261.637 314.259c-2.612-1.085-4.861-2.425-6.501-3.807-1.617-1.4-2.75-2.772-2.801-4.399 0-.334 .062-.674 .192-.985 .75-1.621 2.517-2.006 4.478-2.028 2.36 .006 5.355 .676 8.47 1.963l-.381 .925-.383 .923c-2.911-1.209-5.727-1.814-7.706-1.809-1.739-.022-2.602 .517-2.63 .791l-.04 .221c-.053 .455 .628 1.675 2.091 2.869 1.436 1.215 3.533 2.476 5.978 3.489 2.913 1.211 5.729 1.814 7.706 1.811 1.734 .021 2.599-.519 2.626-.784l.042-.229c.053-.459-.628-1.677-2.089-2.873-1.438-1.213-3.533-2.474-5.978-3.485l.383-.923 .381-.925c2.614 1.083 4.861 2.422 6.501 3.803 1.617 1.4 2.75 2.774 2.801 4.403 .002 .33-.06 .67-.191 .993-.754 1.611-2.515 1.998-4.476 2.021-2.359-.008-5.354-.678-8.473-1.965z" id="path129" fill="#ccc"/></g></g><g id="g131"><g id="g133"><ellipse transform="matrix(.924 .383 -.383 .924 125.887 -74.764)" cx="250.929" cy="279.146" rx="4.011" ry="10.939" id="ellipse135" fill="#fff"/><path d="m246.36 290.174c-1.614-.753-2-2.518-2.022-4.477 .006-2.359 .675-5.355 1.961-8.47 1.086-2.614 2.423-4.863 3.807-6.505 1.398-1.616 2.772-2.75 4.4-2.801 .333 0 .674 .062 .992 .193 1.614 .751 2 2.514 2.021 4.475-.004 2.359-.674 5.357-1.959 8.472l-.924-.382 .922 .384c-1.084 2.612-2.423 4.86-3.805 6.501-1.4 1.616-2.774 2.75-4.4 2.801-.332 0-.671-.057-.993-.191zm5.273-18.162c-1.213 1.438-2.474 3.534-3.486 5.981-1.208 2.91-1.812 5.725-1.807 7.704-.022 1.735 .515 2.598 .786 2.628l.226 .039c.456 .054 1.676-.628 2.873-2.09 1.211-1.438 2.473-3.532 3.487-5.978 1.208-2.912 1.811-5.727 1.807-7.708 .022-1.735-.518-2.6-.787-2.626l-.226-.041-.051-.003c-.491 .001-1.667 .684-2.822 2.094z" id="path137" fill="#ccc"/></g><g id="g139"><path d="m236.777 323.794c2.311-5.58 2.524-10.792 .479-11.64-2.044-.849-5.58 2.99-7.893 8.57-2.311 5.582-2.524 10.795-.479 11.641 2.049 .848 5.581-2.99 7.893-8.571z" id="path141" fill="#fff"/><path d="m228.501 333.288c-1.614-.754-2-2.517-2.023-4.479 .004-2.359 .675-5.353 1.961-8.468 1.083-2.613 2.423-4.863 3.804-6.504 1.402-1.618 2.774-2.75 4.403-2.801 .337-.003 .677 .062 .991 .193 1.616 .75 2 2.515 2.023 4.478-.004 2.359-.673 5.354-1.959 8.468l-.925-.383 .925 .385c-1.086 2.611-2.423 4.86-3.807 6.502-1.399 1.616-2.772 2.749-4.401 2.801h-.016c-.329-.001-.662-.062-.976-.192zm5.272-18.163c-1.214 1.438-2.475 3.534-3.486 5.981-1.208 2.909-1.812 5.723-1.809 7.702-.021 1.736 .518 2.603 .787 2.63l.229 .041c.457 .054 1.676-.628 2.872-2.091 1.213-1.437 2.475-3.532 3.488-5.979 1.208-2.908 1.811-5.724 1.806-7.703 .023-1.738-.52-2.605-.791-2.632l-.223-.041-.051-.003c-.491 .001-1.667 .685-2.822 2.095z" id="path143" fill="#ccc"/></g></g></g><g id="g145"><g id="g147"><radialGradient id="radialGradient2682" cx="242" cy="286.59" r="28.224" gradientUnits="userSpaceOnUse"><stop offset="0" id="stop2684" stop-color="#FAAF3F"/><stop offset=".185" id="stop2686" stop-color="#FAB83D"/><stop offset=".487" id="stop2688" stop-color="#F9D037"/><stop offset=".725" id="stop2690" stop-color="#F9E831"/><stop offset=".77" id="stop2692" stop-color="#F9E834"/><stop offset=".808" id="stop2694" stop-color="#F9EA3F"/><stop offset=".845" id="stop2696" stop-color="#FAEC51"/><stop offset=".881" id="stop2698" stop-color="#FBEE6A"/><stop offset=".915" id="stop2700" stop-color="#FCF28B"/><stop offset=".949" id="stop2702" stop-color="#FDF7B3"/><stop offset=".982" id="stop2704" stop-color="#FEFCE2"/><stop offset="1" id="stop2706" stop-color="#fff"/></radialGradient><circle cx="242" cy="300.702" r="14.112" id="circle174" fill="url(#SVGID_1_)"/><path d="m226.887 300.702c0-8.348 6.767-15.112 15.113-15.112s15.11 6.764 15.11 15.112c0 8.345-6.764 15.11-15.11 15.112-8.346-.002-15.113-6.767-15.113-15.112zm2 0c.013 7.24 5.871 13.099 13.113 13.112 7.24-.014 13.098-5.872 13.11-13.112-.013-7.242-5.871-13.1-13.11-13.112-7.242 .013-13.1 5.87-13.113 13.112z" id="path176" fill="#faaf3f"/></g><radialGradient id="radialGradient2710" cx="242" cy="288.767" r="18.309" gradientUnits="userSpaceOnUse"><stop offset="0" id="stop2712" stop-color="#fff"/><stop offset=".389" id="stop2714" stop-color="#FFFFFD"/><stop offset=".529" id="stop2716" stop-color="#FFFEF6"/><stop offset=".628" id="stop2718" stop-color="#FEFDEB"/><stop offset=".709" id="stop2720" stop-color="#FEFCDA"/><stop offset=".778" id="stop2722" stop-color="#FDFAC4"/><stop offset=".839" id="stop2724" stop-color="#FCF7A8"/><stop offset=".895" id="stop2726" stop-color="#FCF488"/><stop offset=".946" id="stop2728" stop-color="#FAF162"/><stop offset=".991" id="stop2730" stop-color="#F9ED39"/><stop offset="1" id="stop2732" stop-color="#F9EC30"/></radialGradient><circle cx="242" cy="299.111" r="11.089" id="circle201" opacity=".9" fill="url(#SVGID_2_)"/><circle cx="242" cy="293.375" r="4.508" id="circle203" fill="#fff"/></g></g></svg>